<svg width="18" height="18" viewBox="0 0 18 18" fill="none" xmlns="http://www.w3.org/2000/svg">
    <path fill-rule="evenodd" clip-rule="evenodd"
        d="M16.5 9.175C16.504 9.11673 16.504 9.05827 16.5 9V2.98333C16.4727 1.67945 15.3956 0.643419 14.0917 0.666666H3.07502C1.77106 0.643419 0.694033 1.67945 0.666687 2.98333V13.35C0.694033 14.6539 1.77106 15.6899 3.07502 15.6667H8.16669C8.21382 15.6707 8.26122 15.6707 8.30835 15.6667C10.101 17.9287 13.388 18.3093 15.65 16.5167C17.9121 14.724 18.2926 11.4371 16.5 9.175ZM3.07502 14C2.69433 14.0149 2.3685 13.7294 2.33335 13.35V2.98333C2.3685 2.60397 2.69433 2.31842 3.07502 2.33333H14.0917C14.4724 2.31842 14.7982 2.60397 14.8334 2.98333V7.76667C13.2201 6.88395 11.2608 6.91744 9.67866 7.85477C8.09648 8.79211 7.12588 10.4943 7.12502 12.3333C7.12627 12.9001 7.21914 13.4629 7.40002 14H3.07502ZM8.79169 12.3333C8.79169 14.2893 10.3773 15.875 12.3334 15.875C14.2875 15.8704 15.8704 14.2874 15.875 12.3333C15.875 10.3773 14.2894 8.79167 12.3334 8.79167C10.3773 8.79167 8.79169 10.3773 8.79169 12.3333ZM12.3334 5.66667H4.83335C4.37312 5.66667 4.00002 5.29357 4.00002 4.83333C4.00002 4.3731 4.37312 4 4.83335 4H12.3334C12.7936 4 13.1667 4.3731 13.1667 4.83333C13.1667 5.29357 12.7936 5.66667 12.3334 5.66667ZM13.7 13.1667C14.1603 13.1667 14.5334 12.7936 14.5334 12.3333C14.5334 11.8731 14.1603 11.5 13.7 11.5H13.1667V10.9667C13.1667 10.5064 12.7936 10.1333 12.3334 10.1333C11.8731 10.1333 11.5 10.5064 11.5 10.9667V11.5H10.9667C10.5064 11.5 10.1334 11.8731 10.1334 12.3333C10.1334 12.7936 10.5064 13.1667 10.9667 13.1667H11.5V13.7C11.5 14.1602 11.8731 14.5333 12.3334 14.5333C12.7936 14.5333 13.1667 14.1602 13.1667 13.7V13.1667H13.7Z"
        fill="currentColor" />
</svg>