<svg width="18" height="17" viewBox="0 0 18 17" fill="none" xmlns="http://www.w3.org/2000/svg">
<path fill-rule="evenodd" clip-rule="evenodd" d="M15.925 9.70834C15.7309 9.81798 15.5444 9.94047 15.3667 10.075C15.4291 10.3007 15.5099 10.5209 15.6084 10.7333L15.6185 10.7579C15.8918 11.4202 16.2273 12.2333 15.7417 12.9C15.25 13.575 14.35 13.5083 13.625 13.4417C13.3947 13.4255 13.1636 13.4255 12.9334 13.4417C12.8797 13.5796 12.812 13.8513 12.7626 14.0497L12.7626 14.0497L12.75 14.1C12.5917 14.8083 12.3834 15.6917 11.575 15.95C11.4485 15.9917 11.3165 16.0141 11.1834 16.0167C10.5671 15.933 9.99876 15.6386 9.57502 15.1833C9.39697 14.9965 9.20473 14.8238 9.00002 14.6667C8.79764 14.8025 8.60546 14.9529 8.42502 15.1167L8.42176 15.1195C7.88065 15.5857 7.20678 16.1662 6.42502 15.95C5.64169 15.7333 5.40835 14.7833 5.25002 14.075L5.23747 14.0247C5.18805 13.8264 5.12032 13.5546 5.06669 13.4167C4.83642 13.4005 4.60529 13.4005 4.37502 13.4167C3.65002 13.4833 2.75835 13.5583 2.25835 12.875C1.77129 12.2093 2.09872 11.4172 2.37019 10.7604L2.39169 10.7083C2.49014 10.4959 2.57096 10.2757 2.63335 10.05C2.45562 9.91547 2.2691 9.79298 2.07502 9.68334C1.45002 9.33334 0.666687 8.83333 0.666687 8C0.666687 7.16667 1.45002 6.66667 2.07502 6.33334C2.2691 6.2237 2.45562 6.1012 2.63335 5.96667C2.57096 5.74098 2.49014 5.52079 2.39169 5.30834L2.38156 5.28379C2.10825 4.6215 1.7727 3.80841 2.25835 3.14167C2.75002 2.46667 3.65002 2.53334 4.37502 2.6C4.60529 2.61621 4.83642 2.61621 5.06669 2.6C5.12032 2.46209 5.18805 2.19032 5.23747 1.99197L5.25002 1.94167C5.40835 1.23334 5.61669 0.350002 6.42502 0.0916688C7.21461 -0.160673 7.85312 0.390064 8.38716 0.85069L8.42502 0.883335C8.60546 1.04715 8.79764 1.19755 9.00002 1.33334C9.2024 1.19755 9.39458 1.04715 9.57502 0.883335L9.59024 0.870223C10.1292 0.40584 10.7908 -0.164251 11.575 0.0916688C12.3667 0.350002 12.5917 1.23334 12.75 1.94167L12.7626 1.99197C12.812 2.19032 12.8797 2.46209 12.9334 2.6C13.1636 2.61621 13.3947 2.61621 13.625 2.6C14.35 2.53334 15.2417 2.45834 15.7417 3.14167C16.2288 3.80732 15.9013 4.5995 15.6298 5.25629L15.6084 5.30834C15.5099 5.52079 15.4291 5.74098 15.3667 5.96667C15.5444 6.1012 15.7309 6.2237 15.925 6.33334C16.55 6.66667 17.3334 7.16667 17.3334 8C17.3334 8.83333 16.55 9.33334 15.925 9.70834ZM12.0167 5.26667C12.3741 5.55288 12.4337 6.07386 12.15 6.43334L8.81669 10.6C8.67065 10.7859 8.45255 10.901 8.21669 10.9167H8.16669C7.94518 10.9179 7.73229 10.831 7.57502 10.675L5.90835 9.00834C5.58159 8.68157 5.58159 8.15177 5.90835 7.825C6.23512 7.49823 6.76492 7.49823 7.09169 7.825L8.10002 8.83333L10.85 5.4C11.1362 5.04258 11.6572 4.98304 12.0167 5.26667ZM15.0667 7.71667C15.1917 7.79167 15.3667 7.9 15.5084 8C15.3667 8.1 15.1917 8.20833 15.0917 8.225C14.515 8.47247 14.0493 8.92327 13.7834 9.49167C13.6621 10.1183 13.7747 10.7676 14.1 11.3167L14.275 11.7583H13.7917C13.1712 11.6228 12.5225 11.7176 11.9667 12.025C11.4893 12.456 11.1917 13.0511 11.1334 13.6917C11.1207 13.7421 11.1069 13.7998 11.0924 13.8605C11.0685 13.9602 11.0426 14.0683 11.0167 14.1667C10.8917 14.075 10.7584 13.9583 10.6667 13.875C10.2314 13.3964 9.64121 13.0865 9.00002 13C8.35391 13.1185 7.77157 13.4644 7.35835 13.975C7.26669 14.0583 7.13335 14.175 7.00835 14.2667C6.99583 14.2191 6.98029 14.1692 6.96468 14.1191C6.92837 14.0026 6.89169 13.8849 6.89169 13.7917C6.8333 13.1511 6.53577 12.556 6.05835 12.125C5.50255 11.8176 4.85389 11.7228 4.23335 11.8583H3.75002L3.92502 11.4167C4.25029 10.8676 4.36296 10.2183 4.24169 9.59167C3.97569 9.02327 3.51006 8.57247 2.93335 8.325C2.80835 8.25 2.63335 8.14167 2.49169 8.04167C2.63335 7.94167 2.80835 7.83334 2.93335 7.75834C3.51006 7.51087 3.97569 7.06007 4.24169 6.49167C4.36296 5.86508 4.25029 5.21577 3.92502 4.66667L3.70002 4.225H4.18335C4.80389 4.36056 5.45255 4.26578 6.00835 3.95834C6.48577 3.52729 6.7833 2.93223 6.84169 2.29167C6.8543 2.2412 6.86812 2.18357 6.88267 2.12284C6.90656 2.02313 6.93246 1.91507 6.95835 1.81667C7.08335 1.90834 7.21669 2.025 7.30835 2.10834C7.75 2.57161 8.33942 2.86631 8.97502 2.94167C9.61063 2.86631 10.2 2.57161 10.6417 2.10834C10.7334 2.025 10.8667 1.90834 10.9917 1.81667C11.0042 1.86427 11.0198 1.91413 11.0354 1.96421C11.0717 2.08072 11.1084 2.19842 11.1084 2.29167C11.1667 2.93223 11.4643 3.52729 11.9417 3.95834C12.4975 4.26578 13.1462 4.36056 13.7667 4.225H14.25L14.075 4.66667C13.7598 5.2042 13.6475 5.83682 13.7584 6.45C14.0243 7.0184 14.49 7.4692 15.0667 7.71667Z" fill="#828282"/>
</svg>
