<svg width="18" height="18" viewBox="0 0 18 18" fill="none" xmlns="http://www.w3.org/2000/svg">
<path fill-rule="evenodd" clip-rule="evenodd" d="M3.16669 0.666656H5.66669C7.0474 0.666656 8.16669 1.78594 8.16669 3.16666V5.66666C8.16669 7.04737 7.0474 8.16666 5.66669 8.16666H3.16669C1.78598 8.16666 0.666687 7.04737 0.666687 5.66666V3.16666C0.666687 1.78594 1.78598 0.666656 3.16669 0.666656ZM5.66669 6.49999C6.12692 6.49999 6.50002 6.12689 6.50002 5.66666V3.16666C6.50002 2.70642 6.12692 2.33332 5.66669 2.33332H3.16669C2.70645 2.33332 2.33335 2.70642 2.33335 3.16666V5.66666C2.33335 6.12689 2.70645 6.49999 3.16669 6.49999H5.66669ZM5.66669 9.83332H3.16669C1.78598 9.83332 0.666687 10.9526 0.666687 12.3333V14.8333C0.666687 16.214 1.78598 17.3333 3.16669 17.3333H5.66669C7.0474 17.3333 8.16669 16.214 8.16669 14.8333V12.3333C8.16669 10.9526 7.0474 9.83332 5.66669 9.83332ZM5.66669 15.6667C6.12692 15.6667 6.50002 15.2936 6.50002 14.8333V12.3333C6.50002 11.8731 6.12692 11.5 5.66669 11.5H3.16669C2.70645 11.5 2.33335 11.8731 2.33335 12.3333V14.8333C2.33335 15.2936 2.70645 15.6667 3.16669 15.6667H5.66669ZM14.8334 9.83332H12.3334C10.9526 9.83332 9.83335 10.9526 9.83335 12.3333V14.8333C9.83335 16.214 10.9526 17.3333 12.3334 17.3333H14.8334C16.2141 17.3333 17.3334 16.214 17.3334 14.8333V12.3333C17.3334 10.9526 16.2141 9.83332 14.8334 9.83332ZM14.8334 15.6667C15.2936 15.6667 15.6667 15.2936 15.6667 14.8333V12.3333C15.6667 11.8731 15.2936 11.5 14.8334 11.5H12.3334C11.8731 11.5 11.5 11.8731 11.5 12.3333V14.8333C11.5 15.2936 11.8731 15.6667 12.3334 15.6667H14.8334ZM14.8334 0.666656H12.3334C10.9526 0.666656 9.83335 1.78594 9.83335 3.16666V5.66666C9.83335 7.04737 10.9526 8.16666 12.3334 8.16666H14.8334C16.2141 8.16666 17.3334 7.04737 17.3334 5.66666V3.16666C17.3334 1.78594 16.2141 0.666656 14.8334 0.666656ZM14.8334 6.49999C15.2936 6.49999 15.6667 6.12689 15.6667 5.66666V3.16666C15.6667 2.70642 15.2936 2.33332 14.8334 2.33332H12.3334C11.8731 2.33332 11.5 2.70642 11.5 3.16666V5.66666C11.5 6.12689 11.8731 6.49999 12.3334 6.49999H14.8334Z" fill="#069DD9"/>
</svg>
