<svg width="17" height="20" viewBox="0 0 17 20" fill="none" xmlns="http://www.w3.org/2000/svg">
<path d="M12 15C12.3472 15 12.6422 14.8783 12.885 14.635C13.1283 14.3922 13.25 14.0972 13.25 13.75C13.25 13.4028 13.1283 13.1078 12.885 12.865C12.6422 12.6217 12.3472 12.5 12 12.5C11.6528 12.5 11.3578 12.6217 11.115 12.865C10.8716 13.1078 10.75 13.4028 10.75 13.75C10.75 14.0972 10.8716 14.3922 11.115 14.635C11.3578 14.8783 11.6528 15 12 15ZM12 17.5C12.4166 17.5 12.8055 17.4028 13.1666 17.2083C13.5278 17.0139 13.8264 16.7431 14.0625 16.3958C13.743 16.2014 13.4097 16.0592 13.0625 15.9692C12.7153 15.8786 12.3611 15.8333 12 15.8333C11.6389 15.8333 11.2847 15.8786 10.9375 15.9692C10.5903 16.0592 10.2569 16.2014 9.93748 16.3958C10.1736 16.7431 10.4722 17.0139 10.8333 17.2083C11.1944 17.4028 11.5833 17.5 12 17.5ZM4.49998 6.66666H9.49998V5C9.49998 4.30555 9.25692 3.71527 8.77081 3.22916C8.2847 2.74305 7.69442 2.49999 6.99998 2.49999C6.30554 2.49999 5.71526 2.74305 5.22915 3.22916C4.74304 3.71527 4.49998 4.30555 4.49998 5V6.66666ZM7.20831 18.3333H1.99998C1.54165 18.3333 1.14942 18.1703 0.823313 17.8442C0.496646 17.5175 0.333313 17.125 0.333313 16.6667V8.33333C0.333313 7.875 0.496646 7.4825 0.823313 7.15583C1.14942 6.82972 1.54165 6.66666 1.99998 6.66666H2.83331V5C2.83331 3.84722 3.2397 2.86444 4.05248 2.05166C4.8647 1.23944 5.8472 0.833328 6.99998 0.833328C8.15276 0.833328 9.13554 1.23944 9.94831 2.05166C10.7605 2.86444 11.1666 3.84722 11.1666 5V6.66666H12C12.4583 6.66666 12.8508 6.82972 13.1775 7.15583C13.5036 7.4825 13.6666 7.875 13.6666 8.33333V9.41666C13.4166 9.33333 13.1561 9.27083 12.885 9.22916C12.6144 9.1875 12.3194 9.16666 12 9.16666V8.33333H1.99998V16.6667H6.41665C6.52776 17 6.63887 17.2883 6.74998 17.5317C6.86109 17.7744 7.01387 18.0417 7.20831 18.3333ZM12 19.1667C10.8472 19.1667 9.8647 18.7606 9.05248 17.9483C8.2397 17.1356 7.83331 16.1528 7.83331 15C7.83331 13.8472 8.2397 12.8644 9.05248 12.0517C9.8647 11.2394 10.8472 10.8333 12 10.8333C13.1528 10.8333 14.1355 11.2394 14.9483 12.0517C15.7605 12.8644 16.1666 13.8472 16.1666 15C16.1666 16.1528 15.7605 17.1356 14.9483 17.9483C14.1355 18.7606 13.1528 19.1667 12 19.1667Z" fill="#828282"/>
</svg>
