<svg width="18" height="18" viewBox="0 0 12 19" fill="none" xmlns="http://www.w3.org/2000/svg">
<path fill-rule="evenodd" clip-rule="evenodd" d="M11.75 10.1667L11.1583 7.5L11.75 4.83334C11.8431 4.41048 11.5968 3.98677 11.1833 3.85834L8.57497 3.025L6.56664 1.18334C6.24701 0.886906 5.75293 0.886906 5.4333 1.18334L3.42497 3.03334L0.816636 3.86667C0.406973 3.99486 0.161702 4.41326 0.249969 4.83334L0.841636 7.5L0.249969 10.1667C0.156876 10.5895 0.403133 11.0132 0.816636 11.1417L2.66664 11.725V17.5C2.66821 17.8057 2.83706 18.086 3.10657 18.2303C3.37608 18.3747 3.70298 18.3598 3.9583 18.1917L5.99997 16.8333L8.04164 18.1917C8.29696 18.3598 8.62386 18.3747 8.89337 18.2303C9.16288 18.086 9.33173 17.8057 9.3333 17.5V11.725L11.1833 11.1417C11.5968 11.0132 11.8431 10.5895 11.75 10.1667ZM5.54164 15.1667L4.3333 16V12.8L5.4333 13.8167C5.58826 13.9575 5.79057 14.0349 5.99997 14.0333C6.20865 14.031 6.40963 13.9542 6.56664 13.8167L7.66664 12.8V15.9417L6.4583 15.1667C6.18019 14.9835 5.81975 14.9835 5.54164 15.1667ZM7.5833 10.6333C7.6756 10.5517 7.78326 10.4894 7.89997 10.45L9.9583 9.78334L9.4833 7.68334C9.45838 7.56239 9.45838 7.43762 9.4833 7.31667L9.9583 5.21667L7.89997 4.575C7.78326 4.53559 7.6756 4.47326 7.5833 4.39167L5.99997 2.93334L4.41664 4.39167C4.32434 4.47326 4.21668 4.53559 4.09997 4.575L2.04164 5.21667L2.51664 7.31667C2.54156 7.43762 2.54156 7.56239 2.51664 7.68334L2.04164 9.78334L4.09997 10.425C4.21668 10.4644 4.32434 10.5267 4.41664 10.6083L5.99997 12.0667L7.5833 10.6333Z" fill="#828282"/>
</svg>
