<svg width="18" height="18" viewBox="0 0 18 18" fill="none" xmlns="http://www.w3.org/2000/svg">
<path fill-rule="evenodd" clip-rule="evenodd" d="M17.3334 3.16667V14.8333C17.3334 16.214 16.2141 17.3333 14.8334 17.3333H3.16669C1.78598 17.3333 0.666687 16.214 0.666687 14.8333V3.16667C0.666687 1.78596 1.78598 0.666668 3.16669 0.666668H14.8334C16.2141 0.666668 17.3334 1.78596 17.3334 3.16667ZM8.16669 4H13.1667C13.6269 4 14 4.3731 14 4.83333C14 5.29357 13.6269 5.66667 13.1667 5.66667H8.16669C7.70645 5.66667 7.33335 5.29357 7.33335 4.83333C7.33335 4.3731 7.70645 4 8.16669 4ZM5.66669 4.83333C5.66537 4.72444 5.64272 4.61685 5.60002 4.51667C5.55782 4.41568 5.49863 4.32267 5.42502 4.24167C5.34402 4.16806 5.25101 4.10887 5.15002 4.06667C4.83969 3.93617 4.48132 4.00521 4.24169 4.24167C4.16808 4.32267 4.10889 4.41568 4.06669 4.51667C4.02399 4.61685 4.00134 4.72444 4.00002 4.83333C3.99874 5.05484 4.0857 5.26774 4.24169 5.425C4.40138 5.57728 4.61271 5.6636 4.83335 5.66667C4.94267 5.66949 5.05112 5.64665 5.15002 5.6C5.25101 5.5578 5.34402 5.49861 5.42502 5.425C5.5773 5.26531 5.66362 5.05397 5.66669 4.83333ZM5.15002 8.23333C4.83969 8.10284 4.48132 8.17188 4.24169 8.40833C4.16452 8.48656 4.10487 8.5803 4.06669 8.68333C4.02399 8.78352 4.00134 8.8911 4.00002 9C3.99874 9.2215 4.0857 9.4344 4.24169 9.59167C4.40138 9.74395 4.61271 9.83027 4.83335 9.83333C4.94225 9.83202 5.04984 9.80937 5.15002 9.76667C5.25101 9.72447 5.34402 9.66528 5.42502 9.59167L5.52502 9.46667C5.55656 9.42021 5.58178 9.36977 5.60002 9.31667C5.62985 9.27041 5.65234 9.21981 5.66669 9.16667C5.67078 9.11119 5.67078 9.05548 5.66669 9C5.66362 8.77936 5.5773 8.56803 5.42502 8.40833C5.34402 8.33473 5.25101 8.27554 5.15002 8.23333ZM8.16669 8.16667H13.1667C13.6269 8.16667 14 8.53976 14 9C14 9.46024 13.6269 9.83333 13.1667 9.83333H8.16669C7.70645 9.83333 7.33335 9.46024 7.33335 9C7.33335 8.53976 7.70645 8.16667 8.16669 8.16667ZM5.42502 12.575C5.34402 12.5014 5.25101 12.4422 5.15002 12.4C4.83969 12.2695 4.48132 12.3385 4.24169 12.575C4.16582 12.6543 4.10635 12.7477 4.06669 12.85C3.97754 13.0517 3.97754 13.2816 4.06669 13.4833C4.10635 13.5856 4.16582 13.6791 4.24169 13.7583C4.40138 13.9106 4.61271 13.9969 4.83335 14C4.94225 13.9987 5.04983 13.976 5.15002 13.9333C5.25101 13.8911 5.34402 13.8319 5.42502 13.7583C5.50089 13.6791 5.56036 13.5856 5.60002 13.4833C5.68917 13.2816 5.68917 13.0517 5.60002 12.85C5.56036 12.7477 5.50089 12.6543 5.42502 12.575ZM8.16669 12.3333H13.1667C13.6269 12.3333 14 12.7064 14 13.1667C14 13.6269 13.6269 14 13.1667 14H8.16669C7.70645 14 7.33335 13.6269 7.33335 13.1667C7.33335 12.7064 7.70645 12.3333 8.16669 12.3333ZM14.8334 2.33333C15.2936 2.33333 15.6667 2.70643 15.6667 3.16667V14.8333C15.6667 15.2936 15.2936 15.6667 14.8334 15.6667H3.16669C2.70645 15.6667 2.33335 15.2936 2.33335 14.8333V3.16667C2.33335 2.70643 2.70645 2.33333 3.16669 2.33333H14.8334Z" fill="#828282"/>
</svg>
