<svg width="18" height="18" viewBox="0 0 18 18" fill="none" xmlns="http://www.w3.org/2000/svg">
<path fill-rule="evenodd" clip-rule="evenodd" d="M3.16669 0.666666H14.8334C16.2141 0.666666 17.3334 1.78595 17.3334 3.16667V8.83333C17.3261 11.789 15.5836 14.4647 12.8834 15.6667L9.34169 17.2333C9.12438 17.331 8.87566 17.331 8.65835 17.2333L5.11669 15.6667C2.41647 14.4647 0.673978 11.789 0.666687 8.83333V3.16667C0.666687 1.78595 1.78598 0.666666 3.16669 0.666666ZM12.2 14.1667C14.3085 13.2307 15.6673 11.1402 15.6667 8.83333V3.16667C15.6667 2.70643 15.2936 2.33333 14.8334 2.33333H3.16669C2.70645 2.33333 2.33335 2.70643 2.33335 3.16667V8.83333C2.33269 11.1402 3.69156 13.2307 5.80002 14.1667L9.00002 15.5917L12.2 14.1667ZM12.4584 6.55833L10.6 6.275L9.76669 4.48333C9.63131 4.1862 9.33487 3.99551 9.00835 3.99551C8.68184 3.99551 8.3854 4.1862 8.25002 4.48333L7.41669 6.275L5.55835 6.55833C5.25121 6.60564 4.99591 6.81992 4.89606 7.11421C4.79622 7.40849 4.86841 7.73389 5.08335 7.95833L6.45835 9.36667L6.13335 11.3667C6.09551 11.6764 6.23384 11.9813 6.49181 12.1568C6.74979 12.3323 7.08419 12.3489 7.35835 12.2L9.02502 11.2833L10.6917 12.2C10.8145 12.2663 10.9521 12.3007 11.0917 12.3C11.3379 12.3032 11.5729 12.1973 11.7336 12.0109C11.8944 11.8244 11.9644 11.5764 11.925 11.3333L11.6 9.33333L12.975 7.925C13.19 7.70056 13.2622 7.37516 13.1623 7.08087C13.0625 6.78659 12.8072 6.57231 12.5 6.525L12.4584 6.55833ZM9.84169 9.225C9.79866 8.96394 9.88217 8.69796 10.0667 8.50833L10.6 7.95833L9.90002 7.85C9.62725 7.80756 9.3932 7.6328 9.27502 7.38333L9.00002 6.79167L8.69169 7.38333C8.57351 7.6328 8.33945 7.80756 8.06669 7.85L7.36669 7.95833L7.90002 8.50833C8.08454 8.69796 8.16804 8.96394 8.12502 9.225L8.00835 9.94167L8.56669 9.63333C8.82452 9.48447 9.14219 9.48447 9.40002 9.63333L9.95835 9.94167L9.84169 9.225Z" fill="#828282"/>
</svg>
