<svg width="18" height="18" viewBox="0 0 18 18" fill="none" xmlns="http://www.w3.org/2000/svg">
    <path fill-rule="evenodd" clip-rule="evenodd"
        d="M16.5 8.16667H15.6084C15.2258 5.14984 12.8502 2.77424 9.83335 2.39167V1.5C9.83335 1.03976 9.46026 0.666666 9.00002 0.666666C8.53978 0.666666 8.16669 1.03976 8.16669 1.5V2.39167C5.14986 2.77424 2.77426 5.14984 2.39169 8.16667H1.50002C1.03978 8.16667 0.666687 8.53976 0.666687 9C0.666687 9.46024 1.03978 9.83333 1.50002 9.83333H2.39169C2.77426 12.8502 5.14986 15.2258 8.16669 15.6083V16.5C8.16669 16.9602 8.53978 17.3333 9.00002 17.3333C9.46026 17.3333 9.83335 16.9602 9.83335 16.5V15.6083C12.8502 15.2258 15.2258 12.8502 15.6084 9.83333H16.5C16.9603 9.83333 17.3334 9.46024 17.3334 9C17.3334 8.53976 16.9603 8.16667 16.5 8.16667ZM6.50002 9C6.50002 7.61929 7.61931 6.5 9.00002 6.5C10.3807 6.5 11.5 7.61929 11.5 9C11.5 10.3807 10.3807 11.5 9.00002 11.5C7.61931 11.5 6.50002 10.3807 6.50002 9ZM8.16669 9C8.16669 9.46024 8.53978 9.83333 9.00002 9.83333C9.46026 9.83333 9.83335 9.46024 9.83335 9C9.83335 8.53976 9.46026 8.16667 9.00002 8.16667C8.53978 8.16667 8.16669 8.53976 8.16669 9ZM9.00002 13.0917C9.46026 13.0917 9.83335 13.4648 9.83335 13.925C11.9281 13.569 13.5691 11.9281 13.925 9.83333C13.4648 9.83333 13.0917 9.46024 13.0917 9C13.0917 8.53976 13.4648 8.16667 13.925 8.16667C13.5691 6.07194 11.9281 4.43097 9.83335 4.075C9.83335 4.53524 9.46026 4.90833 9.00002 4.90833C8.53978 4.90833 8.16669 4.53524 8.16669 4.075C6.07196 4.43097 4.43099 6.07194 4.07502 8.16667C4.53526 8.16667 4.90835 8.53976 4.90835 9C4.90835 9.46024 4.53526 9.83333 4.07502 9.83333C4.43099 11.9281 6.07196 13.569 8.16669 13.925C8.16669 13.4648 8.53978 13.0917 9.00002 13.0917Z"
        fill="currentColor" />
</svg>