<svg width="18" height="18" viewBox="0 0 18 18" fill="none" xmlns="http://www.w3.org/2000/svg">
<path fill-rule="evenodd" clip-rule="evenodd" d="M13.1667 4.83334C13.1667 2.53215 11.3012 0.666672 9.00002 0.666672C6.69883 0.666672 4.83335 2.53215 4.83335 4.83334C4.83335 7.13452 6.69883 9 9.00002 9H8.16669C4.02455 9 0.666687 12.3579 0.666687 16.5C0.666687 16.9602 1.03978 17.3333 1.50002 17.3333H16.5C16.9603 17.3333 17.3334 16.9602 17.3334 16.5C17.3334 12.3579 13.9755 9 9.83335 9H9.00002C10.1051 9 11.1649 8.56102 11.9463 7.77962C12.7277 6.99821 13.1667 5.93841 13.1667 4.83334ZM8.16669 10.6667C5.26637 10.6659 2.80602 12.7961 2.39169 15.6667H15.6084C15.194 12.7961 12.7337 10.6659 9.83335 10.6667H8.16669ZM6.50002 4.83334C6.50002 6.21405 7.61931 7.33334 9.00002 7.33334C9.66306 7.33334 10.2989 7.06995 10.7678 6.60111C11.2366 6.13226 11.5 5.49638 11.5 4.83334C11.5 3.45263 10.3807 2.33334 9.00002 2.33334C7.61931 2.33334 6.50002 3.45263 6.50002 4.83334Z" fill="#828282"/>
</svg>
